<svg width="111" height="17" viewBox="0 0 111 17" fill="none" xmlns="http://www.w3.org/2000/svg">
<path d="M0.936 16V0.599999H4.676V16H0.936ZM2.674 10.104V6.98H10.638V10.104H2.674ZM2.674 3.9V0.599999H11.54V3.9H2.674ZM18.1513 16.198C17.1687 16.198 16.2887 15.9413 15.5113 15.428C14.7487 14.9 14.14 14.1813 13.6853 13.272C13.2307 12.348 13.0033 11.3067 13.0033 10.148C13.0033 8.96 13.2307 7.91133 13.6853 7.002C14.14 6.09267 14.7633 5.38133 15.5553 4.868C16.3473 4.34 17.2493 4.076 18.2613 4.076C18.8187 4.076 19.3247 4.15667 19.7793 4.318C20.2487 4.47933 20.6593 4.70667 21.0113 5C21.3633 5.27867 21.664 5.60867 21.9133 5.99C22.1627 6.35667 22.346 6.75267 22.4633 7.178L21.7373 7.09V4.318H25.2353V16H21.6713V13.184L22.4633 13.162C22.346 13.5727 22.1553 13.9613 21.8913 14.328C21.6273 14.6947 21.3047 15.0173 20.9233 15.296C20.542 15.5747 20.1167 15.7947 19.6473 15.956C19.178 16.1173 18.6793 16.198 18.1513 16.198ZM19.1193 13.228C19.662 13.228 20.1313 13.1033 20.5273 12.854C20.9233 12.6047 21.2313 12.2527 21.4513 11.798C21.6713 11.3287 21.7813 10.7787 21.7813 10.148C21.7813 9.51733 21.6713 8.97467 21.4513 8.52C21.2313 8.05067 20.9233 7.69133 20.5273 7.442C20.1313 7.178 19.662 7.046 19.1193 7.046C18.5913 7.046 18.1293 7.178 17.7333 7.442C17.352 7.69133 17.0513 8.05067 16.8313 8.52C16.6113 8.97467 16.5013 9.51733 16.5013 10.148C16.5013 10.7787 16.6113 11.3287 16.8313 11.798C17.0513 12.2527 17.352 12.6047 17.7333 12.854C18.1293 13.1033 18.5913 13.228 19.1193 13.228ZM28.3413 16V4.318H31.6853L31.8393 8.124L31.1793 7.398C31.3553 6.76733 31.6413 6.20267 32.0373 5.704C32.448 5.20533 32.9246 4.80933 33.4673 4.516C34.01 4.22267 34.5893 4.076 35.2053 4.076C35.4693 4.076 35.7113 4.098 35.9313 4.142C36.166 4.186 36.3786 4.23733 36.5693 4.296L35.6013 8.19C35.44 8.08733 35.22 8.00667 34.9413 7.948C34.6773 7.87467 34.3986 7.838 34.1053 7.838C33.7826 7.838 33.482 7.89667 33.2033 8.014C32.9246 8.11667 32.69 8.27067 32.4993 8.476C32.3086 8.68133 32.1546 8.92333 32.0373 9.202C31.9346 9.48067 31.8833 9.796 31.8833 10.148V16H28.3413ZM38.331 16V4.318H41.675L41.785 6.43L41.323 6.452C41.499 6.07067 41.719 5.73333 41.983 5.44C42.2617 5.14667 42.5697 4.90467 42.907 4.714C43.259 4.50867 43.6183 4.35467 43.985 4.252C44.3663 4.14933 44.7477 4.098 45.129 4.098C45.701 4.098 46.2217 4.186 46.691 4.362C47.1603 4.538 47.571 4.824 47.923 5.22C48.275 5.60133 48.5537 6.122 48.759 6.782L48.209 6.738L48.385 6.386C48.5757 6.034 48.8177 5.71867 49.111 5.44C49.419 5.14667 49.7563 4.90467 50.123 4.714C50.4897 4.50867 50.871 4.35467 51.267 4.252C51.663 4.14933 52.0444 4.098 52.411 4.098C53.335 4.098 54.105 4.28133 54.721 4.648C55.337 5 55.799 5.53533 56.107 6.254C56.4297 6.97267 56.591 7.84533 56.591 8.872V16H53.049V9.158C53.049 8.68867 52.983 8.3 52.851 7.992C52.719 7.684 52.521 7.45667 52.257 7.31C52.0077 7.14867 51.6923 7.068 51.311 7.068C51.003 7.068 50.717 7.11933 50.453 7.222C50.2037 7.32467 49.9837 7.464 49.793 7.64C49.617 7.816 49.4777 8.02133 49.375 8.256C49.2723 8.49067 49.221 8.75467 49.221 9.048V16H45.679V9.136C45.679 8.696 45.613 8.322 45.481 8.014C45.349 7.706 45.151 7.47133 44.887 7.31C44.623 7.14867 44.315 7.068 43.963 7.068C43.655 7.068 43.369 7.11933 43.105 7.222C42.8557 7.32467 42.6357 7.464 42.445 7.64C42.269 7.816 42.1297 8.02133 42.027 8.256C41.9243 8.49067 41.873 8.74733 41.873 9.026V16H38.331Z" fill="black"/>
<path d="M59.8891 16V0.599999H70.6251V3.79H63.5191V12.81H70.8451V16H59.8891ZM61.6491 9.686V6.65H69.6351V9.686H61.6491ZM77.8994 16.198C76.9167 16.198 76.0367 15.9413 75.2594 15.428C74.4967 14.9 73.8881 14.1813 73.4334 13.272C72.9787 12.348 72.7514 11.3067 72.7514 10.148C72.7514 8.96 72.9787 7.91133 73.4334 7.002C73.8881 6.09267 74.5114 5.38133 75.3034 4.868C76.0954 4.34 76.9974 4.076 78.0094 4.076C78.5667 4.076 79.0727 4.15667 79.5274 4.318C79.9967 4.47933 80.4074 4.70667 80.7594 5C81.1114 5.27867 81.4121 5.60867 81.6614 5.99C81.9107 6.35667 82.0941 6.75267 82.2114 7.178L81.4854 7.09V4.318H84.9834V16H81.4194V13.184L82.2114 13.162C82.0941 13.5727 81.9034 13.9613 81.6394 14.328C81.3754 14.6947 81.0527 15.0173 80.6714 15.296C80.2901 15.5747 79.8647 15.7947 79.3954 15.956C78.9261 16.1173 78.4274 16.198 77.8994 16.198ZM78.8674 13.228C79.4101 13.228 79.8794 13.1033 80.2754 12.854C80.6714 12.6047 80.9794 12.2527 81.1994 11.798C81.4194 11.3287 81.5294 10.7787 81.5294 10.148C81.5294 9.51733 81.4194 8.97467 81.1994 8.52C80.9794 8.05067 80.6714 7.69133 80.2754 7.442C79.8794 7.178 79.4101 7.046 78.8674 7.046C78.3394 7.046 77.8774 7.178 77.4814 7.442C77.1001 7.69133 76.7994 8.05067 76.5794 8.52C76.3594 8.97467 76.2494 9.51733 76.2494 10.148C76.2494 10.7787 76.3594 11.3287 76.5794 11.798C76.7994 12.2527 77.1001 12.6047 77.4814 12.854C77.8774 13.1033 78.3394 13.228 78.8674 13.228ZM87.6273 16V13.976L93.8313 6.012V7.178H87.6273V4.318H97.3073V6.43L91.4333 14.152L91.3453 13.14H97.5053V16H87.6273ZM105.536 16.22C104.246 16.22 103.124 15.9633 102.17 15.45C101.217 14.922 100.476 14.2107 99.9482 13.316C99.4202 12.4067 99.1562 11.3727 99.1562 10.214C99.1562 9.31933 99.3029 8.498 99.5962 7.75C99.8895 7.002 100.3 6.35667 100.828 5.814C101.356 5.25667 101.98 4.83133 102.698 4.538C103.432 4.23 104.231 4.076 105.096 4.076C105.918 4.076 106.666 4.22267 107.34 4.516C108.03 4.80933 108.624 5.22 109.122 5.748C109.621 6.276 110.002 6.89933 110.266 7.618C110.53 8.33667 110.648 9.12133 110.618 9.972L110.596 10.918H101.29L100.784 8.938H107.736L107.362 9.356V8.916C107.333 8.54933 107.216 8.22667 107.01 7.948C106.82 7.65467 106.563 7.42733 106.24 7.266C105.918 7.10467 105.551 7.024 105.14 7.024C104.568 7.024 104.077 7.14133 103.666 7.376C103.27 7.596 102.97 7.926 102.764 8.366C102.559 8.79133 102.456 9.31933 102.456 9.95C102.456 10.5953 102.588 11.16 102.852 11.644C103.131 12.1133 103.527 12.48 104.04 12.744C104.568 13.008 105.192 13.14 105.91 13.14C106.409 13.14 106.849 13.0667 107.23 12.92C107.626 12.7733 108.052 12.524 108.506 12.172L110.156 14.504C109.702 14.9 109.218 15.2227 108.704 15.472C108.191 15.7213 107.663 15.9047 107.12 16.022C106.592 16.154 106.064 16.22 105.536 16.22Z" fill="#269B51"/>
</svg>
