<svg width="16" height="17" viewBox="0 0 16 17" fill="none" xmlns="http://www.w3.org/2000/svg">
<path fill-rule="evenodd" clip-rule="evenodd" d="M6 2.50663C4.93913 2.50663 3.92172 2.92805 3.17157 3.6782C2.42143 4.42834 2 5.44576 2 6.50663C2 7.56749 2.42143 8.58491 3.17157 9.33505C3.92172 10.0852 4.93913 10.5066 6 10.5066C7.06087 10.5066 8.07828 10.0852 8.82843 9.33505C9.57857 8.58491 10 7.56749 10 6.50663C10 5.44576 9.57857 4.42834 8.82843 3.6782C8.07828 2.92805 7.06087 2.50663 6 2.50663ZM1.13461e-07 6.50663C-0.00012039 5.56233 0.222642 4.63134 0.650171 3.78937C1.0777 2.9474 1.69792 2.21822 2.4604 1.66115C3.22287 1.10408 4.10606 0.734838 5.03815 0.583459C5.97023 0.43208 6.92488 0.502837 7.82446 0.789976C8.72404 1.07711 9.54315 1.57253 10.2152 2.23592C10.8872 2.89932 11.3931 3.71196 11.6919 4.60776C11.9906 5.50356 12.0737 6.45722 11.9343 7.39118C11.795 8.32514 11.4372 9.21302 10.89 9.98263L15.707 14.7996C15.8892 14.9882 15.99 15.2408 15.9877 15.503C15.9854 15.7652 15.8802 16.016 15.6948 16.2014C15.5094 16.3869 15.2586 16.492 14.9964 16.4943C14.7342 16.4966 14.4816 16.3958 14.293 16.2136L9.477 11.3976C8.57936 12.0359 7.52335 12.4148 6.42468 12.4927C5.326 12.5707 4.22707 12.3447 3.2483 11.8396C2.26953 11.3345 1.44869 10.5697 0.875723 9.62898C0.30276 8.6883 -0.000214051 7.60806 1.13461e-07 6.50663Z" fill="#808080"/>
</svg>
