<svg width="13" height="13" viewBox="0 0 13 13" fill="none" xmlns="http://www.w3.org/2000/svg">
<path d="M0.5 0.5H1.83333L2.1 1.83333M2.1 1.83333H12.5L9.83333 7.16667H3.16667M2.1 1.83333L3.16667 7.16667M3.16667 7.16667L1.638 8.69533C1.218 9.11533 1.51533 9.83333 2.10933 9.83333H9.83333M9.83333 9.83333C9.47971 9.83333 9.14057 9.97381 8.89052 10.2239C8.64048 10.4739 8.5 10.813 8.5 11.1667C8.5 11.5203 8.64048 11.8594 8.89052 12.1095C9.14057 12.3595 9.47971 12.5 9.83333 12.5C10.187 12.5 10.5261 12.3595 10.7761 12.1095C11.0262 11.8594 11.1667 11.5203 11.1667 11.1667C11.1667 10.813 11.0262 10.4739 10.7761 10.2239C10.5261 9.97381 10.187 9.83333 9.83333 9.83333ZM4.5 11.1667C4.5 11.5203 4.35952 11.8594 4.10948 12.1095C3.85943 12.3595 3.52029 12.5 3.16667 12.5C2.81304 12.5 2.47391 12.3595 2.22386 12.1095C1.97381 11.8594 1.83333 11.5203 1.83333 11.1667C1.83333 10.813 1.97381 10.4739 2.22386 10.2239C2.47391 9.97381 2.81304 9.83333 3.16667 9.83333C3.52029 9.83333 3.85943 9.97381 4.10948 10.2239C4.35952 10.4739 4.5 10.813 4.5 11.1667Z" stroke="#269B51" stroke-linecap="round" stroke-linejoin="round"/>
</svg>
